<?xml version="1.0" encoding="utf-8"?>
<!-- Generator: Adobe Illustrator 23.0.1, SVG Export Plug-In . SVG Version: 6.00 Build 0)  -->
<svg version="1.1" id="Layer_1" xmlns="http://www.w3.org/2000/svg" xmlns:xlink="http://www.w3.org/1999/xlink" x="0px" y="0px"
	 viewBox="0 0 190 76" style="enable-background:new 0 0 190 76;" xml:space="preserve">
<style type="text/css">
	.st0{fill:#184D87;}
	.st1{fill:#0393FB;}
	.st2{fill:#D2714E;}
	.st3{fill:#A45848;}
	.st4{fill:#F39649;}
	.st5{fill-rule:evenodd;clip-rule:evenodd;fill:#FFFFFF;}
	.st6{fill:#FEB96B;}
	.st7{fill:none;}
	.st8{clip-path:url(#SVGID_2_);}
	.st9{fill:#341B14;}
	.st10{fill:#FFB406;}
</style>
<path class="st0" d="M80.6,13.7h6.7L82.5,32H94l-1.6,5.9H74.1L80.6,13.7z"/>
<path class="st0" d="M112.3,28.3l-0.9-7l-4.5,7H112.3z M110.2,13.5h6.6l3.8,24.4h-7.1l-0.6-4.3h-9.3l-2.9,4.3h-7.3L110.2,13.5z"/>
<path class="st0" d="M135.4,32.5c1.2,0,2.1-0.2,2.7-0.7c0.7-0.5,1-1.1,1-1.9c0-1.3-1-1.9-3-1.9h-4.6l-1.2,4.5H135.4z M137.3,23.3
	c1.2,0,2.1-0.2,2.7-0.7c0.6-0.4,0.9-1,0.9-1.8c0-0.6-0.2-1-0.7-1.3c-0.4-0.3-1.2-0.5-2.2-0.5h-4.2l-1.1,4.3H137.3z M128.8,13.7h10.1
	c1.7,0,3,0.2,4.1,0.5c1.1,0.3,2,0.7,2.7,1.3c0.7,0.5,1.2,1.2,1.5,1.9c0.3,0.7,0.4,1.4,0.4,2.2c0,1.5-0.5,2.9-1.5,3.9
	c-0.9,1.1-2.3,1.8-4,2.2c1.1,0.4,2,1,2.6,1.8c0.7,0.8,1,1.8,1,3c0,1-0.2,2-0.7,2.9c-0.4,0.9-1.1,1.7-2,2.4c-0.9,0.6-2,1.2-3.4,1.6
	c-1.4,0.4-3,0.6-4.9,0.6h-12.6L128.8,13.7z"/>
<path class="st0" d="M153.5,13.7h19.4l-1.6,5.7h-12.7l-1,3.7h11.6l-1.4,5.3h-11.6l-1,3.8h12.9l-1.5,5.7H147L153.5,13.7z"/>
<path class="st0" d="M176.6,13.7h6.7L178.4,32H190l-1.6,5.9h-18.3L176.6,13.7z"/>
<path class="st1" d="M79.3,62c-1.9,0-3.6-0.3-5.1-0.9c-1.5-0.6-2.8-1.5-3.8-2.6l3.5-3.6c1.9,1.8,3.9,2.6,6,2.6
	c0.6,0,1.2-0.1,1.6-0.4c0.4-0.3,0.6-0.6,0.6-1.1c0-0.2,0-0.4-0.1-0.5c-0.1-0.2-0.2-0.3-0.5-0.5c-0.2-0.2-0.6-0.3-1-0.5
	c-0.4-0.2-0.9-0.4-1.6-0.7c-0.8-0.3-1.5-0.6-2.1-0.9c-0.6-0.3-1.1-0.7-1.6-1.1c-0.4-0.4-0.8-0.9-1-1.4c-0.2-0.5-0.4-1.2-0.4-1.9
	c0-1,0.2-1.8,0.6-2.7c0.4-0.8,1-1.5,1.7-2.1c0.7-0.6,1.6-1,2.6-1.4c1-0.3,2.1-0.5,3.3-0.5c1.7,0,3.2,0.3,4.5,0.8
	c1.3,0.5,2.5,1.2,3.4,2.1l-3.3,3.7c-0.7-0.6-1.5-1.2-2.4-1.5c-0.8-0.4-1.7-0.6-2.7-0.6c-0.6,0-1.2,0.1-1.5,0.4
	c-0.4,0.3-0.6,0.6-0.6,1c0,0.2,0,0.4,0.1,0.5c0.1,0.1,0.2,0.3,0.5,0.4c0.2,0.1,0.6,0.3,1,0.5c0.4,0.2,1,0.4,1.6,0.7
	c0.7,0.3,1.4,0.6,2,0.9c0.6,0.3,1.2,0.7,1.6,1.1c0.4,0.4,0.8,0.9,1,1.4c0.3,0.6,0.4,1.2,0.4,1.9c0,1-0.2,1.9-0.6,2.7
	c-0.4,0.8-1,1.5-1.7,2.1c-0.7,0.6-1.6,1.1-2.6,1.4C81.6,61.9,80.5,62,79.3,62z"/>
<path class="st1" d="M98.2,62c-2.5,0-4.4-0.6-5.8-1.8c-1.3-1.2-2-2.9-2-5c0-0.5,0-1,0.1-1.5c0.1-0.5,0.2-1.1,0.3-1.6l2.7-9.8h5.4
	l-2.7,10.2c-0.1,0.3-0.2,0.6-0.2,0.9c0,0.3-0.1,0.6-0.1,0.9c0,0.9,0.3,1.6,0.8,2.1c0.5,0.5,1.3,0.7,2.2,0.7c1.1,0,1.9-0.3,2.6-1
	c0.4-0.4,0.7-0.8,0.9-1.3c0.3-0.5,0.5-1.2,0.7-1.9l2.9-10.6h5.4l-3.1,11.4c-0.7,2.5-1.7,4.5-3,5.8c-0.9,0.9-1.9,1.5-3.1,1.9
	C101,61.8,99.7,62,98.2,62z"/>
<path class="st1" d="M119.4,51.9c1.3,0,2.3-0.3,3.1-0.8c0.7-0.6,1.1-1.3,1.1-2.2c0-0.5-0.2-1-0.6-1.4c-0.5-0.5-1.3-0.7-2.3-0.7h-2
	l-1.4,5.1H119.4z M114.6,42.3h6.3c1.6,0,2.9,0.2,4,0.5c1.1,0.3,2,0.8,2.7,1.5c1,1,1.5,2.3,1.5,4c0,1.2-0.2,2.3-0.7,3.3
	c-0.5,1-1.1,1.8-2,2.5c-0.8,0.7-1.8,1.2-3,1.5c-1.2,0.4-2.5,0.5-3.9,0.5h-3.2l-1.5,5.6h-5.4L114.6,42.3z"/>
<path class="st1" d="M138,51.9c1.3,0,2.3-0.3,3.1-0.8c0.7-0.6,1.1-1.3,1.1-2.2c0-0.5-0.2-1-0.6-1.4c-0.5-0.5-1.3-0.7-2.3-0.7h-2
	l-1.4,5.1H138z M133.2,42.3h6.3c1.6,0,2.9,0.2,4,0.5c1.1,0.3,2,0.8,2.7,1.5c1,1,1.5,2.3,1.5,4c0,1.2-0.2,2.3-0.7,3.3
	c-0.5,1-1.1,1.8-2,2.5c-0.8,0.7-1.8,1.2-3,1.5c-1.2,0.4-2.5,0.5-3.9,0.5h-3.2l-1.5,5.6H128L133.2,42.3z"/>
<path class="st1" d="M151.7,42.3h5.4L153.2,57h9.2l-1.3,4.7h-14.6L151.7,42.3z"/>
<path class="st1" d="M170.4,54.2l-3.9-11.9h5.8l1.9,7.2l5.8-7.2h6.4l-10.8,12.4l-1.9,6.9h-5.4L170.4,54.2z"/>
<path class="st2" d="M32.2,0.3L64.8,19v37.4L32.2,37.6V0.3z"/>
<path class="st3" d="M0,19L32.4,0.3v37.4L0,56.4L0,19z"/>
<path class="st4" d="M48.7,28.3L16.3,9.6l16.1-9.4L64.8,19L48.7,28.3z"/>
<path class="st4" d="M0,19l32.4,18.8v37.4L0,56.4L0,19z"/>
<path class="st5" d="M29.5,59.3l-9-5.2v10.4l9,5.2V59.3z M26.7,60.9L23.4,59v3.9l3.3,1.9V60.9z"/>
<path class="st3" d="M2.5,44.8l7.5,4.5v2.7l-7.5-4.5V44.8z"/>
<path class="st3" d="M2.5,49.1l3.8,2.3v2l-3.8-2.3V49.1z"/>
<path class="st2" d="M32.4,37.8L64.8,19v37.4L32.4,75.2V37.8z"/>
<path class="st6" d="M32.3,37.9L0,19.1l16.3-9.4l32.4,18.7L32.3,37.9z"/>
<polygon class="st7" points="35.6,39.4 46.4,33.1 46.4,52.2 35.6,58.4 "/>
<polygon class="st7" points="35.6,39.4 48.6,31.9 48.6,54.7 35.6,62.3 "/>
<g>
	<defs>
		<polygon id="SVGID_1_" points="57.6,49.9 63.3,46.6 63.3,54.7 57.6,58 		"/>
	</defs>
	<clipPath id="SVGID_2_">
		<use xlink:href="#SVGID_1_"  style="overflow:visible;"/>
	</clipPath>
	<g class="st8">
		<path class="st9" d="M60.4,56.1c0.1-0.1,1.6-1.7,2.1-2.4c0.5-0.8,0.8-1.6,0.8-2.4v-3.8l0,0c-1.2-0.1-2.7,0.9-2.8,0.9
			c-0.1,0-1.6,0.8-2.8,2.3l0,0v3.8c0,0.8,0.3,1.3,0.8,1.5C58.9,56.2,60.4,56.1,60.4,56.1z"/>
		<path class="st10" d="M60.4,56.2c0,0-1.6,0.1-2.1,0c-0.5-0.2-0.8-0.7-0.8-1.5v-3.9c1.3-1.5,2.9-2.4,2.9-2.4s1.6-1,2.9-0.9v3.9
			c0,0.8-0.2,1.6-0.8,2.4C62,54.4,60.4,56.2,60.4,56.2z M57.8,54.4c0,0.7,0.2,1.2,0.7,1.4c0.4,0.1,1.6,0.1,1.9,0
			c0.3-0.4,1.6-1.7,1.9-2.3c0.5-0.7,0.7-1.4,0.7-2.2v-3.9c-1.7,0.8-3.7,2-5.3,4.6V54.4z"/>
		<path class="st10" d="M62.1,51.4c0.2,0,0.3,0.1,0.3,0.3c0,0.2-0.1,0.4-0.3,0.5c-0.2,0.1-0.3,0.1-0.5,0v0.5c0.2,0,0.3,0,0.6-0.1
			c0.5-0.3,0.7-0.8,0.7-1.2c0-0.3-0.1-0.6-0.5-0.6c-0.2,0-0.3,0-0.3-0.2c0-0.2,0.2-0.4,0.3-0.5c0.2-0.1,0.3-0.1,0.5,0v-0.5
			c-0.1,0-0.3,0-0.6,0.1c-0.3,0.2-0.7,0.7-0.7,1.1C61.6,51.2,61.7,51.4,62.1,51.4z M60.3,53.6c0,0,0.1,0,0.2-0.1
			c0.6-0.3,0.9-1.1,0.9-1.9c0-0.9-0.3-1.2-0.9-0.8c-0.3,0.2-0.5,0.4-0.7,0.6v3.8l0.5-0.3V53.6z M60.3,51.4c0,0,0.1-0.1,0.2-0.2
			c0.3-0.2,0.4,0,0.4,0.7c0,0.6-0.1,1-0.4,1.2c-0.1,0-0.1,0.1-0.2,0.1L60.3,51.4L60.3,51.4z M58.8,54.6c0.3-0.2,0.6-0.4,0.8-0.7
			v-2.5l-0.5,0.3v2.2C59,53.9,58.9,54,58.8,54c-0.2,0.1-0.3-0.1-0.3-0.3v-1.9l-0.5,0.3V54C58.1,54.7,58.3,54.8,58.8,54.6z
			 M62.2,54.9v0.4l0.1,0v-0.2l0,0l0.1,0.1l0.1,0c0,0-0.1-0.1-0.1-0.1c0,0,0.1-0.1,0.1-0.1C62.4,54.8,62.4,54.8,62.2,54.9L62.2,54.9z
			 M62.3,54.9C62.3,54.8,62.4,54.9,62.3,54.9c0.1,0.1,0,0.1,0,0.1l0,0L62.3,54.9L62.3,54.9z"/>
		<path class="st10" d="M62.5,54.9c0,0.1-0.1,0.3-0.2,0.4c-0.1,0.1-0.2,0-0.2-0.1c0-0.1,0.1-0.3,0.2-0.4
			C62.4,54.7,62.5,54.7,62.5,54.9z M62.3,54.7C62.2,54.7,62,55,62,55.1c0,0.2,0.1,0.3,0.3,0.2c0.1-0.1,0.3-0.3,0.3-0.5
			C62.6,54.7,62.5,54.6,62.3,54.7z"/>
	</g>
</g>
</svg>
